<mxfile host="app.diagrams.net" agent="Mozilla/5.0 (Macintosh; Intel Mac OS X 10_15_7) AppleWebKit/537.36 (KHTML, like Gecko) Chrome/129.0.0.0 Safari/537.36" version="24.8.3">
  <diagram name="第 1 页" id="Q0VAIy80H5OJ5yMMpjKz">
    <mxGraphModel dx="984" dy="659" grid="1" gridSize="10" guides="1" tooltips="1" connect="1" arrows="1" fold="1" page="1" pageScale="1" pageWidth="827" pageHeight="1169" math="0" shadow="0">
      <root>
        <mxCell id="0" />
        <mxCell id="1" parent="0" />
        <mxCell id="3rq9TRspSCfhGOofcQb4-5" style="edgeStyle=orthogonalEdgeStyle;rounded=0;orthogonalLoop=1;jettySize=auto;html=1;entryX=0;entryY=0.25;entryDx=0;entryDy=0;" parent="1" source="3rq9TRspSCfhGOofcQb4-1" target="3rq9TRspSCfhGOofcQb4-2" edge="1">
          <mxGeometry relative="1" as="geometry">
            <Array as="points">
              <mxPoint x="230" y="190" />
              <mxPoint x="230" y="139" />
            </Array>
          </mxGeometry>
        </mxCell>
        <mxCell id="3rq9TRspSCfhGOofcQb4-10" value="language" style="edgeLabel;html=1;align=center;verticalAlign=middle;resizable=0;points=[];" parent="3rq9TRspSCfhGOofcQb4-5" vertex="1" connectable="0">
          <mxGeometry x="0.3587" y="-2" relative="1" as="geometry">
            <mxPoint x="-1" as="offset" />
          </mxGeometry>
        </mxCell>
        <mxCell id="3rq9TRspSCfhGOofcQb4-6" style="edgeStyle=orthogonalEdgeStyle;rounded=0;orthogonalLoop=1;jettySize=auto;html=1;" parent="1" source="3rq9TRspSCfhGOofcQb4-1" target="3rq9TRspSCfhGOofcQb4-3" edge="1">
          <mxGeometry relative="1" as="geometry">
            <Array as="points">
              <mxPoint x="230" y="190" />
              <mxPoint x="230" y="240" />
            </Array>
          </mxGeometry>
        </mxCell>
        <mxCell id="3rq9TRspSCfhGOofcQb4-11" value="images" style="edgeLabel;html=1;align=center;verticalAlign=middle;resizable=0;points=[];" parent="3rq9TRspSCfhGOofcQb4-6" vertex="1" connectable="0">
          <mxGeometry x="0.36" y="-1" relative="1" as="geometry">
            <mxPoint y="1" as="offset" />
          </mxGeometry>
        </mxCell>
        <mxCell id="3rq9TRspSCfhGOofcQb4-1" value="语言和图像编码器" style="rounded=1;whiteSpace=wrap;html=1;fillColor=#dae8fc;strokeColor=#6c8ebf;" parent="1" vertex="1">
          <mxGeometry x="120" y="120" width="60" height="140" as="geometry" />
        </mxCell>
        <mxCell id="3rq9TRspSCfhGOofcQb4-7" style="edgeStyle=orthogonalEdgeStyle;rounded=0;orthogonalLoop=1;jettySize=auto;html=1;entryX=0;entryY=0.5;entryDx=0;entryDy=0;" parent="1" source="3rq9TRspSCfhGOofcQb4-2" target="3rq9TRspSCfhGOofcQb4-4" edge="1">
          <mxGeometry relative="1" as="geometry" />
        </mxCell>
        <mxCell id="3rq9TRspSCfhGOofcQb4-2" value="&lt;div style=&quot;text-align: left;&quot;&gt;因果注意力&lt;/div&gt;" style="shape=trapezoid;perimeter=trapezoidPerimeter;whiteSpace=wrap;html=1;fixedSize=1;fillColor=#ffe6cc;strokeColor=#d79b00;" parent="1" vertex="1">
          <mxGeometry x="320" y="120" width="120" height="60" as="geometry" />
        </mxCell>
        <mxCell id="3rq9TRspSCfhGOofcQb4-9" style="edgeStyle=orthogonalEdgeStyle;rounded=0;orthogonalLoop=1;jettySize=auto;html=1;exitX=1;exitY=0.5;exitDx=0;exitDy=0;entryX=0;entryY=0.5;entryDx=0;entryDy=0;" parent="1" source="3rq9TRspSCfhGOofcQb4-3" target="3rq9TRspSCfhGOofcQb4-4" edge="1">
          <mxGeometry relative="1" as="geometry" />
        </mxCell>
        <mxCell id="3rq9TRspSCfhGOofcQb4-3" value="&lt;div style=&quot;text-align: left;&quot;&gt;全注意力&lt;/div&gt;" style="shape=trapezoid;perimeter=trapezoidPerimeter;whiteSpace=wrap;html=1;fixedSize=1;fillColor=#ffe6cc;strokeColor=#d79b00;" parent="1" vertex="1">
          <mxGeometry x="320" y="210" width="120" height="60" as="geometry" />
        </mxCell>
        <mxCell id="3rq9TRspSCfhGOofcQb4-4" value="语言和图像解码器" style="rounded=1;whiteSpace=wrap;html=1;fillColor=#f8cecc;strokeColor=#b85450;" parent="1" vertex="1">
          <mxGeometry x="580" y="120" width="60" height="140" as="geometry" />
        </mxCell>
      </root>
    </mxGraphModel>
  </diagram>
</mxfile>
